HIERARCHY
ROOT joint_Root
{
	OFFSET 0.0 0.0 0.0
	CHANNELS 6 Xposition Yposition Zposition Zrotation Xrotation Yrotation 
	JOINT Hips
	{
		OFFSET -17.1583 93.1646 452.98
		CHANNELS 6 Xposition Yposition Zposition Zrotation Xrotation Yrotation 
		JOINT Spine
		{
			OFFSET 15.7357 0.0 0.0
			CHANNELS 6 Xposition Yposition Zposition Zrotation Xrotation Yrotation 
			JOINT Chest
			{
				OFFSET 8.98455 -0.406207 0.0
				CHANNELS 6 Xposition Yposition Zposition Zrotation Xrotation Yrotation 
				JOINT Neck
				{
					OFFSET 16.3773 0.0 0.0
					CHANNELS 6 Xposition Yposition Zposition Zrotation Xrotation Yrotation 
					JOINT Head
					{
						OFFSET 6.45672 0.0 0.0
						CHANNELS 6 Xposition Yposition Zposition Zrotation Xrotation Yrotation 
						End Site
						{
							OFFSET 0.0 0.0 0.0
						}
					}
				}
				JOINT Shoulder_L
				{
					OFFSET 12.9942 -0.242716 4.98039
					CHANNELS 6 Xposition Yposition Zposition Zrotation Xrotation Yrotation 
					JOINT UpperArm_L
					{
						OFFSET 5.34809 0.0 0.0
						CHANNELS 6 Xposition Yposition Zposition Zrotation Xrotation Yrotation 
						JOINT LowerArm_L
						{
							OFFSET 24.3286 1.87007e-05 0.0
							CHANNELS 6 Xposition Yposition Zposition Zrotation Xrotation Yrotation 
							JOINT Hand_L
							{
								OFFSET 22.2916 0.0 0.0
								CHANNELS 6 Xposition Yposition Zposition Zrotation Xrotation Yrotation 
								End Site
								{
									OFFSET 0.0 0.0 0.0
								}
							}
						}
					}
				}
				JOINT Shoulder_R
				{
					OFFSET 12.9945 -0.242716 -4.98039
					CHANNELS 6 Xposition Yposition Zposition Zrotation Xrotation Yrotation 
					JOINT UpperArm_R
					{
						OFFSET -5.34813 0.0 0.0
						CHANNELS 6 Xposition Yposition Zposition Zrotation Xrotation Yrotation 
						JOINT LowerArm_R
						{
							OFFSET -24.3289 0.000322201 0.0
							CHANNELS 6 Xposition Yposition Zposition Zrotation Xrotation Yrotation 
							JOINT Hand_R
							{
								OFFSET -22.2915 -0.000108084 0.0
								CHANNELS 6 Xposition Yposition Zposition Zrotation Xrotation Yrotation 
								End Site
								{
									OFFSET 0.0 0.0 0.0
								}
							}
						}
					}
				}
			}
		}
		JOINT UpperLeg_L
		{
			OFFSET -2.19248 -6.46944 0.0
			CHANNELS 6 Xposition Yposition Zposition Zrotation Xrotation Yrotation 
			JOINT LowerLeg_L
			{
				OFFSET 39.0811 0.0 -1.23785e-05
				CHANNELS 6 Xposition Yposition Zposition Zrotation Xrotation Yrotation 
				JOINT Foot_L
				{
					OFFSET 40.9854 0.0 -1.26872e-05
					CHANNELS 6 Xposition Yposition Zposition Zrotation Xrotation Yrotation 
					JOINT Toes_L
					{
						OFFSET 11.7543 0.0 0.0
						CHANNELS 6 Xposition Yposition Zposition Zrotation Xrotation Yrotation 
						End Site
						{
							OFFSET 0.0 0.0 0.0
						}
					}
				}
			}
		}
		JOINT UpperLeg_R
		{
			OFFSET -2.19251 6.46944 0.0
			CHANNELS 6 Xposition Yposition Zposition Zrotation Xrotation Yrotation 
			JOINT LowerLeg_R
			{
				OFFSET -39.0811 -0.00228153 -0.0401928
				CHANNELS 6 Xposition Yposition Zposition Zrotation Xrotation Yrotation 
				JOINT Foot_R
				{
					OFFSET -40.9854 0.0 0.0
					CHANNELS 6 Xposition Yposition Zposition Zrotation Xrotation Yrotation 
					JOINT Toes_R
					{
						OFFSET -11.7543 0.0 0.0
						CHANNELS 6 Xposition Yposition Zposition Zrotation Xrotation Yrotation 
						End Site
						{
							OFFSET 0.0 0.0 0.0
						}
					}
				}
			}
		}
	}
}
MOTION
Frames:	7
Frame Time:	0.0333333
0.000000 0.000000 0.000000 0.000000 0.000000 -0.000000 -1.198900 93.566000 4.111860 88.117600 0.327137 -8.600960 15.735700 0.000005 -0.000001 -84.593000 87.935100 85.728900 8.984550 -0.406207 -0.000000 -11.871100 -0.580980 2.221320 16.377300 -0.000001 -0.000001 -8.883460 0.659381 0.212232 6.456720 -0.000001 -0.000000 -0.716566 1.307120 -1.940380 12.994200 -0.242716 4.980390 -87.368100 -5.011530 -62.245700 5.348090 -0.000007 -0.000001 -72.368800 -61.485900 -115.053000 24.328600 0.000019 0.000005 0.000045 -10.326000 0.000001 22.291600 -0.000001 0.000005 49.992800 4.445060 17.499000 12.994500 -0.242716 -4.980390 94.643800 -8.224880 -60.412200 -5.348130 -0.000001 -0.000004 -80.237800 -54.110800 -129.148000 -24.328900 0.000322 -0.000009 -0.001100 -33.139800 -0.000194 -22.291500 -0.000108 -0.000004 51.699700 5.468580 -5.317150 -2.192480 -6.469440 -0.000000 -172.670000 -6.772960 -0.097671 39.081100 -0.000007 -0.000012 -0.000001 0.000220 0.000000 40.985400 -0.000006 -0.000013 -9.801230 12.845600 -61.144000 11.754300 -0.000000 0.000003 -0.001217 0.186067 -9.028790 -2.192510 6.469440 -0.000001 178.394000 9.704730 179.353000 -39.081100 -0.002282 -0.040193 0.005825 -0.071930 1.968770 -40.985400 0.000008 0.000006 -9.880240 6.018240 -62.832500 -11.754300 -0.000006 -0.000006 -0.011179 0.279911 -5.198840
0.000000 0.000000 0.000000 0.000000 0.000000 -0.000000 -1.197430 93.563800 4.090780 88.098500 0.313659 -8.575890 15.735700 0.000005 -0.000001 -84.531000 87.969400 85.682400 8.984550 -0.406207 -0.000000 -11.802200 -0.580884 2.252680 16.377300 -0.000001 -0.000001 -8.828880 0.648721 0.167965 6.456720 -0.000001 -0.000000 -0.655545 1.256560 -1.879140 12.994200 -0.242716 4.980390 -87.410400 -4.908830 -62.141300 5.348090 -0.000007 -0.000001 -72.227300 -61.319800 -114.893000 24.328600 0.000019 0.000005 0.000045 -10.408800 0.000001 22.291600 -0.000001 0.000005 49.775100 4.442290 17.543900 12.994500 -0.242716 -4.980390 94.563500 -8.089500 -60.437800 -5.348130 -0.000001 -0.000004 -79.843900 -54.169100 -128.906000 -24.328900 0.000322 -0.000009 -0.001083 -32.958000 -0.000193 -22.291500 -0.000108 -0.000004 51.287300 5.462460 -5.090570 -2.192480 -6.469440 -0.000000 -172.652000 -6.900040 -0.091563 39.081100 -0.000007 -0.000012 -0.000001 0.001538 0.000004 40.985400 -0.000006 -0.000013 -9.822750 12.964500 -61.066000 11.754300 -0.000000 0.000003 -0.001093 0.184352 -9.098460 -2.192510 6.469440 -0.000001 178.409000 9.703160 179.346000 -39.081100 -0.002282 -0.040193 0.005848 -0.072112 1.982460 -40.985400 0.000008 0.000006 -9.866900 6.002160 -62.766600 -11.754300 -0.000006 -0.000006 -0.010874 0.277725 -5.288340
0.000000 0.000000 0.000000 0.000000 0.000000 -0.000000 -1.187700 93.585400 4.061010 88.114900 0.325033 -8.558460 15.735700 0.000005 -0.000001 -84.736700 87.977600 85.887100 8.984550 -0.406207 -0.000000 -11.787400 -0.564651 2.252480 16.377300 -0.000001 -0.000001 -8.644790 0.661604 0.103475 6.456720 -0.000001 -0.000000 -0.637973 1.172340 -1.788470 12.994200 -0.242716 4.980390 -87.464000 -4.801800 -62.116400 5.348090 -0.000007 -0.000001 -72.100400 -61.106000 -114.739000 24.328600 0.000019 0.000005 0.000049 -10.521300 0.000001 22.291600 -0.000001 0.000005 49.404800 4.459110 17.270800 12.994500 -0.242716 -4.980390 94.508600 -7.957780 -60.335500 -5.348130 -0.000001 -0.000004 -79.556900 -53.979500 -128.674000 -24.328900 0.000322 -0.000009 -0.001091 -32.243200 -0.000188 -22.291500 -0.000108 -0.000004 51.055000 5.456040 -4.857100 -2.192480 -6.469440 -0.000000 -172.675000 -6.846370 -0.102077 39.081100 -0.000007 -0.000012 -0.000001 0.001473 0.000006 40.985400 -0.000006 -0.000013 -9.891870 12.898300 -61.018000 11.754300 -0.000000 0.000003 -0.001193 0.185736 -9.042220 -2.192510 6.469440 -0.000001 178.382000 9.767820 179.334000 -39.081100 -0.002282 -0.040193 0.005909 -0.073807 1.983790 -40.985400 0.000008 0.000006 -9.963450 6.063690 -62.668600 -11.754300 -0.000006 -0.000006 -0.010951 0.278278 -5.265710
0.000000 0.000000 0.000000 0.000000 0.000000 -0.000000 -1.197990 93.602200 4.020790 88.052600 0.337084 -8.575940 15.735700 0.000005 -0.000001 -84.551400 87.978000 85.725800 8.984550 -0.406207 -0.000000 -11.785100 -0.581602 2.299000 16.377300 -0.000001 -0.000001 -8.495180 0.648594 0.105443 6.456720 -0.000001 -0.000000 -0.596905 1.157490 -1.748190 12.994200 -0.242716 4.980390 -87.501600 -4.714850 -62.038700 5.348090 -0.000007 -0.000001 -72.088200 -60.907100 -114.658000 24.328600 0.000019 0.000005 0.000044 -10.650400 0.000001 22.291600 -0.000001 0.000005 48.757500 4.467600 17.133000 12.994500 -0.242716 -4.980390 94.468200 -7.888170 -60.342800 -5.348130 -0.000001 -0.000004 -78.975500 -54.036800 -128.150000 -24.328900 0.000322 -0.000009 -0.001097 -32.135500 -0.000187 -22.291500 -0.000108 -0.000004 50.911500 5.452520 -4.728990 -2.192480 -6.469440 -0.000000 -172.606000 -6.953520 -0.152993 39.081100 -0.000007 -0.000012 -0.000001 -0.000793 0.000000 40.985400 -0.000006 -0.000013 -9.972050 12.988000 -60.930900 11.754300 -0.000000 0.000003 -0.001251 0.186534 -9.009800 -2.192510 6.469440 -0.000001 178.468000 9.745050 179.281000 -39.081100 -0.002282 -0.040193 0.005887 -0.073945 1.963010 -40.985400 0.000008 0.000006 -9.942510 5.992790 -62.530100 -11.754300 -0.000006 -0.000006 -0.010507 0.275052 -5.397720
0.000000 0.000000 0.000000 0.000000 0.000000 -0.000000 -1.193120 93.638800 3.978890 88.038400 0.311272 -8.563350 15.735700 0.000005 -0.000001 -84.892100 87.993900 86.073300 8.984550 -0.406207 -0.000000 -11.755800 -0.555864 2.315530 16.377300 -0.000001 -0.000001 -8.413940 0.612027 0.084012 6.456720 -0.000001 -0.000000 -0.575119 1.074960 -1.670080 12.994200 -0.242716 4.980390 -87.536700 -4.637900 -61.985000 5.348090 -0.000007 -0.000001 -71.941300 -60.748400 -114.465000 24.328600 0.000019 0.000005 0.000044 -10.567400 0.000001 22.291600 -0.000001 0.000005 48.546400 4.461370 17.234000 12.994500 -0.242716 -4.980390 94.419800 -7.809460 -60.367200 -5.348130 -0.000001 -0.000004 -78.863400 -53.947900 -128.007000 -24.328900 0.000322 -0.000009 -0.001098 -32.274500 -0.000188 -22.291500 -0.000108 -0.000004 50.615000 5.453260 -4.757130 -2.192480 -6.469440 -0.000000 -172.608000 -6.987560 -0.173376 39.081100 -0.000007 -0.000012 -0.000001 -0.000898 0.000000 40.985400 -0.000006 -0.000013 -9.829740 13.000200 -60.861200 11.754300 -0.000000 0.000003 -0.001244 0.186443 -9.013470 -2.192510 6.469440 -0.000001 178.472000 9.750110 179.250000 -39.081100 -0.002282 -0.040193 0.005942 -0.075633 1.960730 -40.985400 0.000008 0.000006 -10.025600 6.036080 -62.366600 -11.754300 -0.000006 -0.000006 -0.010470 0.274781 -5.408780
0.000000 0.000000 0.000000 0.000000 0.000000 -0.000000 -1.190050 93.647900 3.916520 88.031000 0.289671 -8.538830 15.735700 0.000005 -0.000001 -84.974300 88.025000 86.154400 8.984550 -0.406207 -0.000000 -11.694500 -0.543950 2.314520 16.377300 -0.000001 -0.000001 -8.399170 0.553401 0.134163 6.456720 -0.000001 -0.000000 -0.540658 1.029000 -1.646560 12.994200 -0.242716 4.980390 -87.569000 -4.572510 -61.963000 5.348090 -0.000007 -0.000001 -71.691900 -60.720800 -114.275000 24.328600 0.000019 0.000005 0.000042 -10.793200 0.000001 22.291600 -0.000001 0.000005 48.541800 4.466450 17.151200 12.994500 -0.242716 -4.980390 94.397100 -7.767810 -60.363200 -5.348130 -0.000001 -0.000004 -78.924100 -53.791100 -127.943000 -24.328900 0.000322 -0.000009 -0.001097 -32.317700 -0.000188 -22.291500 -0.000108 -0.000004 50.447400 5.449870 -4.635160 -2.192480 -6.469440 -0.000000 -172.600000 -6.931340 -0.195400 39.081100 -0.000007 -0.000012 -0.000001 -0.001728 0.000002 40.985400 -0.000006 -0.000013 -9.943360 12.915500 -60.733800 11.754300 -0.000000 0.000003 -0.001128 0.184836 -9.078820 -2.192510 6.469440 -0.000001 178.477000 9.750650 179.219000 -39.081100 -0.002282 -0.040193 0.005948 -0.075574 1.966850 -40.985400 0.000008 0.000006 -9.983180 6.043810 -62.283200 -11.754300 -0.000006 -0.000006 -0.010467 0.274759 -5.409700
0.000000 0.000000 0.000000 0.000000 0.000000 -0.000000 -1.191670 93.674300 3.847630 88.008500 0.270675 -8.510550 15.735700 0.000005 -0.000001 -84.953900 88.055700 86.140600 8.984550 -0.406207 -0.000000 -11.633200 -0.540500 2.328480 16.377300 -0.000001 -0.000001 -8.372530 0.529027 0.132046 6.456720 -0.000001 -0.000000 -0.537684 0.954977 -1.590170 12.994200 -0.242716 4.980390 -87.590300 -4.529020 -61.945800 5.348090 -0.000007 -0.000001 -71.912000 -60.613000 -114.447000 24.328600 0.000019 0.000005 0.000047 -10.698300 0.000001 22.291600 -0.000001 0.000005 48.547000 4.463480 17.199500 12.994500 -0.242716 -4.980390 94.380100 -7.741070 -60.374800 -5.348130 -0.000001 -0.000004 -78.868500 -53.669600 -127.809000 -24.328900 0.000322 -0.000009 -0.001097 -32.298300 -0.000188 -22.291500 -0.000108 -0.000004 50.499200 5.448660 -4.591840 -2.192480 -6.469440 -0.000000 -172.575000 -6.941120 -0.226152 39.081100 -0.000007 -0.000012 -0.000001 -0.002711 0.000006 40.985400 -0.000006 -0.000013 -10.056800 12.877400 -60.615500 11.754300 -0.000000 0.000003 -0.001076 0.184109 -9.108360 -2.192510 6.469440 -0.000001 178.504000 9.720490 179.198000 -39.081100 -0.002282 -0.040193 0.005938 -0.076300 1.940890 -40.985400 0.000008 0.000006 -10.023400 6.014120 -62.158900 -11.754300 -0.000006 -0.000006 -0.010425 0.274452 -5.422260
